<mxfile host="app.diagrams.net" modified="2023-12-06T09:55:41.539Z" agent="Mozilla/5.0 (Windows NT 10.0; Win64; x64) AppleWebKit/537.36 (KHTML, like Gecko) Chrome/119.0.0.0 Safari/537.36 Edg/119.0.0.0" etag="zaVYihZf7QxX4usupVbF" version="22.1.5" type="device" pages="2">
  <diagram name="Page-1" id="2_nNLKhwrdpF3ywhrPpc">
    <mxGraphModel dx="1364" dy="727" grid="1" gridSize="10" guides="1" tooltips="1" connect="1" arrows="1" fold="1" page="1" pageScale="1" pageWidth="850" pageHeight="1100" math="0" shadow="0">
      <root>
        <mxCell id="0" />
        <mxCell id="1" parent="0" />
        <mxCell id="CA2oKce-wzVSo1xP4ESL-1" value="Người dùng" style="swimlane;startSize=20;whiteSpace=wrap;html=1;" parent="1" vertex="1">
          <mxGeometry x="120" y="30" width="360" height="410" as="geometry">
            <mxRectangle x="120" y="80" width="110" height="30" as="alternateBounds" />
          </mxGeometry>
        </mxCell>
        <mxCell id="CA2oKce-wzVSo1xP4ESL-2" value="" style="ellipse;html=1;shape=startState;fillColor=#000000;strokeColor=#ff0000;" parent="CA2oKce-wzVSo1xP4ESL-1" vertex="1">
          <mxGeometry x="165" y="30" width="30" height="30" as="geometry" />
        </mxCell>
        <mxCell id="CA2oKce-wzVSo1xP4ESL-3" value="" style="edgeStyle=orthogonalEdgeStyle;html=1;verticalAlign=bottom;endArrow=open;endSize=8;strokeColor=#ff0000;rounded=0;" parent="CA2oKce-wzVSo1xP4ESL-1" source="CA2oKce-wzVSo1xP4ESL-2" edge="1">
          <mxGeometry relative="1" as="geometry">
            <mxPoint x="180" y="80" as="targetPoint" />
          </mxGeometry>
        </mxCell>
        <mxCell id="CA2oKce-wzVSo1xP4ESL-4" value="Chọn quản lý thống kê" style="rounded=1;whiteSpace=wrap;html=1;arcSize=40;fontColor=#000000;fillColor=#ffffc0;strokeColor=#ff0000;" parent="CA2oKce-wzVSo1xP4ESL-1" vertex="1">
          <mxGeometry x="120" y="80" width="120" height="40" as="geometry" />
        </mxCell>
        <mxCell id="CA2oKce-wzVSo1xP4ESL-39" value="Chọn thống kê doanh thu" style="rounded=1;whiteSpace=wrap;html=1;arcSize=40;fontColor=#000000;fillColor=#ffffc0;strokeColor=#ff0000;" parent="CA2oKce-wzVSo1xP4ESL-1" vertex="1">
          <mxGeometry x="120" y="150" width="120" height="40" as="geometry" />
        </mxCell>
        <mxCell id="CA2oKce-wzVSo1xP4ESL-43" value="" style="shape=line;html=1;strokeWidth=6;strokeColor=#ff0000;direction=south;" parent="CA2oKce-wzVSo1xP4ESL-1" vertex="1">
          <mxGeometry x="40" y="150" width="10" height="120" as="geometry" />
        </mxCell>
        <mxCell id="gnY2DLI1wGSjgWLGSifv-8" value="Chọn thống kê sản phẩm bán chạy" style="rounded=1;whiteSpace=wrap;html=1;arcSize=40;fontColor=#000000;fillColor=#ffffc0;strokeColor=#ff0000;" vertex="1" parent="CA2oKce-wzVSo1xP4ESL-1">
          <mxGeometry x="120" y="230" width="120" height="40" as="geometry" />
        </mxCell>
        <mxCell id="gnY2DLI1wGSjgWLGSifv-14" value="" style="edgeStyle=orthogonalEdgeStyle;html=1;verticalAlign=bottom;endArrow=open;endSize=8;strokeColor=#ff0000;rounded=0;exitX=0;exitY=0.5;exitDx=0;exitDy=0;entryX=0;entryY=0.5;entryDx=0;entryDy=0;entryPerimeter=0;" edge="1" parent="CA2oKce-wzVSo1xP4ESL-1" source="CA2oKce-wzVSo1xP4ESL-4" target="CA2oKce-wzVSo1xP4ESL-43">
          <mxGeometry relative="1" as="geometry">
            <mxPoint x="60" y="230" as="targetPoint" />
            <mxPoint x="60" y="100" as="sourcePoint" />
            <Array as="points" />
          </mxGeometry>
        </mxCell>
        <mxCell id="gnY2DLI1wGSjgWLGSifv-16" value="" style="endArrow=none;html=1;rounded=0;strokeColor=#FF0000;" edge="1" parent="CA2oKce-wzVSo1xP4ESL-1">
          <mxGeometry width="50" height="50" relative="1" as="geometry">
            <mxPoint x="80" y="270" as="sourcePoint" />
            <mxPoint x="80" y="150" as="targetPoint" />
          </mxGeometry>
        </mxCell>
        <mxCell id="gnY2DLI1wGSjgWLGSifv-17" value="" style="edgeStyle=orthogonalEdgeStyle;html=1;verticalAlign=bottom;endArrow=open;endSize=8;strokeColor=#ff0000;rounded=0;" edge="1" parent="CA2oKce-wzVSo1xP4ESL-1">
          <mxGeometry relative="1" as="geometry">
            <mxPoint x="120" y="169.86" as="targetPoint" />
            <mxPoint x="80" y="170" as="sourcePoint" />
          </mxGeometry>
        </mxCell>
        <mxCell id="gnY2DLI1wGSjgWLGSifv-18" value="" style="edgeStyle=orthogonalEdgeStyle;html=1;verticalAlign=bottom;endArrow=open;endSize=8;strokeColor=#ff0000;rounded=0;" edge="1" parent="CA2oKce-wzVSo1xP4ESL-1">
          <mxGeometry relative="1" as="geometry">
            <mxPoint x="120" y="249.86" as="targetPoint" />
            <mxPoint x="80" y="250" as="sourcePoint" />
          </mxGeometry>
        </mxCell>
        <mxCell id="CA2oKce-wzVSo1xP4ESL-17" value="Hệ thống" style="swimlane;startSize=20;whiteSpace=wrap;html=1;" parent="1" vertex="1">
          <mxGeometry x="480" y="30" width="480" height="410" as="geometry">
            <mxRectangle x="400" y="80" width="90" height="30" as="alternateBounds" />
          </mxGeometry>
        </mxCell>
        <mxCell id="CA2oKce-wzVSo1xP4ESL-18" value="" style="ellipse;html=1;shape=endState;fillColor=#000000;strokeColor=#ff0000;" parent="CA2oKce-wzVSo1xP4ESL-17" vertex="1">
          <mxGeometry x="335" y="320" width="30" height="30" as="geometry" />
        </mxCell>
        <mxCell id="CA2oKce-wzVSo1xP4ESL-21" value="Truy xuất thông tin thống kê trong csdl" style="rounded=1;whiteSpace=wrap;html=1;arcSize=40;fontColor=#000000;fillColor=#ffffc0;strokeColor=#ff0000;" parent="CA2oKce-wzVSo1xP4ESL-17" vertex="1">
          <mxGeometry x="110" y="150" width="120" height="40" as="geometry" />
        </mxCell>
        <mxCell id="CA2oKce-wzVSo1xP4ESL-45" value="" style="edgeStyle=orthogonalEdgeStyle;html=1;verticalAlign=bottom;endArrow=open;endSize=8;strokeColor=#ff0000;rounded=0;exitX=1;exitY=0.5;exitDx=0;exitDy=0;entryX=0;entryY=0.5;entryDx=0;entryDy=0;" parent="CA2oKce-wzVSo1xP4ESL-17" edge="1" target="CA2oKce-wzVSo1xP4ESL-33" source="CA2oKce-wzVSo1xP4ESL-21">
          <mxGeometry relative="1" as="geometry">
            <mxPoint x="169" y="320" as="targetPoint" />
            <mxPoint x="169.33000000000004" y="260" as="sourcePoint" />
          </mxGeometry>
        </mxCell>
        <mxCell id="CA2oKce-wzVSo1xP4ESL-49" value="" style="edgeStyle=orthogonalEdgeStyle;html=1;verticalAlign=bottom;endArrow=open;endSize=8;strokeColor=#ff0000;rounded=0;exitX=0.5;exitY=1;exitDx=0;exitDy=0;entryX=0.5;entryY=0;entryDx=0;entryDy=0;" parent="CA2oKce-wzVSo1xP4ESL-17" edge="1" target="CA2oKce-wzVSo1xP4ESL-18" source="CA2oKce-wzVSo1xP4ESL-33">
          <mxGeometry relative="1" as="geometry">
            <mxPoint x="169.33000000000004" y="385" as="targetPoint" />
            <mxPoint x="169.66000000000008" y="325" as="sourcePoint" />
            <Array as="points" />
          </mxGeometry>
        </mxCell>
        <mxCell id="CA2oKce-wzVSo1xP4ESL-33" value="Hiển thị kết quả" style="rounded=1;whiteSpace=wrap;html=1;arcSize=40;fontColor=#000000;fillColor=#ffffc0;strokeColor=#ff0000;" parent="CA2oKce-wzVSo1xP4ESL-17" vertex="1">
          <mxGeometry x="290" y="150" width="120" height="40" as="geometry" />
        </mxCell>
        <mxCell id="gnY2DLI1wGSjgWLGSifv-9" value="Truy xuất thông tin thống kê trong csdl" style="rounded=1;whiteSpace=wrap;html=1;arcSize=40;fontColor=#000000;fillColor=#ffffc0;strokeColor=#ff0000;" vertex="1" parent="CA2oKce-wzVSo1xP4ESL-17">
          <mxGeometry x="110" y="230" width="120" height="40" as="geometry" />
        </mxCell>
        <mxCell id="gnY2DLI1wGSjgWLGSifv-10" value="" style="edgeStyle=orthogonalEdgeStyle;html=1;verticalAlign=bottom;endArrow=open;endSize=8;strokeColor=#ff0000;rounded=0;entryX=0;entryY=0.5;entryDx=0;entryDy=0;exitX=1;exitY=0.5;exitDx=0;exitDy=0;" edge="1" parent="CA2oKce-wzVSo1xP4ESL-17">
          <mxGeometry relative="1" as="geometry">
            <mxPoint x="110" y="249.5" as="targetPoint" />
            <mxPoint x="-120" y="249.5" as="sourcePoint" />
          </mxGeometry>
        </mxCell>
        <mxCell id="gnY2DLI1wGSjgWLGSifv-12" value="Hiển thị kết quả" style="rounded=1;whiteSpace=wrap;html=1;arcSize=40;fontColor=#000000;fillColor=#ffffc0;strokeColor=#ff0000;" vertex="1" parent="CA2oKce-wzVSo1xP4ESL-17">
          <mxGeometry x="110" y="315" width="120" height="40" as="geometry" />
        </mxCell>
        <mxCell id="gnY2DLI1wGSjgWLGSifv-13" value="" style="edgeStyle=orthogonalEdgeStyle;html=1;verticalAlign=bottom;endArrow=open;endSize=8;strokeColor=#ff0000;rounded=0;exitX=1;exitY=0.5;exitDx=0;exitDy=0;entryX=0;entryY=0.5;entryDx=0;entryDy=0;" edge="1" parent="CA2oKce-wzVSo1xP4ESL-17" source="gnY2DLI1wGSjgWLGSifv-12" target="CA2oKce-wzVSo1xP4ESL-18">
          <mxGeometry relative="1" as="geometry">
            <mxPoint x="330" y="330" as="targetPoint" />
            <mxPoint x="360" y="200" as="sourcePoint" />
            <Array as="points" />
          </mxGeometry>
        </mxCell>
        <mxCell id="gnY2DLI1wGSjgWLGSifv-11" value="" style="edgeStyle=orthogonalEdgeStyle;html=1;verticalAlign=bottom;endArrow=open;endSize=8;strokeColor=#ff0000;rounded=0;exitX=0.5;exitY=1;exitDx=0;exitDy=0;entryX=0.5;entryY=0;entryDx=0;entryDy=0;" edge="1" parent="CA2oKce-wzVSo1xP4ESL-17" source="gnY2DLI1wGSjgWLGSifv-9" target="gnY2DLI1wGSjgWLGSifv-12">
          <mxGeometry relative="1" as="geometry">
            <mxPoint x="170" y="310" as="targetPoint" />
            <mxPoint x="240" y="180" as="sourcePoint" />
          </mxGeometry>
        </mxCell>
        <mxCell id="CA2oKce-wzVSo1xP4ESL-35" value="" style="edgeStyle=orthogonalEdgeStyle;html=1;verticalAlign=bottom;endArrow=open;endSize=8;strokeColor=#ff0000;rounded=0;entryX=0.499;entryY=0.433;entryDx=0;entryDy=0;entryPerimeter=0;" parent="1" edge="1">
          <mxGeometry relative="1" as="geometry">
            <mxPoint x="579.6399999999999" y="259.33000000000004" as="targetPoint" />
            <mxPoint x="580" y="260" as="sourcePoint" />
          </mxGeometry>
        </mxCell>
        <mxCell id="gnY2DLI1wGSjgWLGSifv-5" value="" style="edgeStyle=orthogonalEdgeStyle;html=1;verticalAlign=bottom;endArrow=open;endSize=8;strokeColor=#ff0000;rounded=0;entryX=0;entryY=0.5;entryDx=0;entryDy=0;exitX=1;exitY=0.5;exitDx=0;exitDy=0;" edge="1" parent="1" source="CA2oKce-wzVSo1xP4ESL-39" target="CA2oKce-wzVSo1xP4ESL-21">
          <mxGeometry relative="1" as="geometry">
            <mxPoint x="600" y="140" as="targetPoint" />
            <mxPoint x="370" y="140" as="sourcePoint" />
          </mxGeometry>
        </mxCell>
        <mxCell id="gnY2DLI1wGSjgWLGSifv-15" value="" style="edgeStyle=orthogonalEdgeStyle;html=1;verticalAlign=bottom;endArrow=open;endSize=8;strokeColor=#ff0000;rounded=0;" edge="1" parent="1">
          <mxGeometry relative="1" as="geometry">
            <mxPoint x="200" y="228" as="targetPoint" />
            <mxPoint x="170" y="228" as="sourcePoint" />
          </mxGeometry>
        </mxCell>
      </root>
    </mxGraphModel>
  </diagram>
  <diagram id="E8lyXgYX72GAyJY3_5cb" name="Page-2">
    <mxGraphModel dx="1023" dy="545" grid="1" gridSize="10" guides="1" tooltips="1" connect="1" arrows="1" fold="1" page="1" pageScale="1" pageWidth="850" pageHeight="1100" math="0" shadow="0">
      <root>
        <mxCell id="0" />
        <mxCell id="1" parent="0" />
      </root>
    </mxGraphModel>
  </diagram>
</mxfile>
